<?xml version="1.0" encoding="UTF-8" standalone="no"?>
<!-- Created with Inkscape (http://www.inkscape.org/) -->

<svg
   xmlns:dc="http://purl.org/dc/elements/1.1/"
   xmlns:cc="http://creativecommons.org/ns#"
   xmlns:rdf="http://www.w3.org/1999/02/22-rdf-syntax-ns#"
   xmlns:svg="http://www.w3.org/2000/svg"
   xmlns="http://www.w3.org/2000/svg"
   version="1.1"
   width="556.26251"
   height="501.35126"
   id="svg3482"
   xml:space="preserve"><metadata
     id="metadata3488"><rdf:RDF><cc:Work
         rdf:about=""><dc:format>image/svg+xml</dc:format><dc:type
           rdf:resource="http://purl.org/dc/dcmitype/StillImage" /><dc:title></dc:title></cc:Work></rdf:RDF></metadata><defs
     id="defs3486"><linearGradient
       x1="0"
       y1="0"
       x2="1"
       y2="0"
       id="linearGradient3504"
       gradientUnits="userSpaceOnUse"
       gradientTransform="matrix(0,545.09741,545.09741,0,640,154.63281)"
       spreadMethod="pad"><stop
         id="stop3506"
         style="stop-color:#039be5;stop-opacity:1"
         offset="0" /><stop
         id="stop3508"
         style="stop-color:#99dfff;stop-opacity:1"
         offset="1" /></linearGradient></defs><g
     transform="matrix(1.25,0,0,-1.25,-521.86875,750.675)"
     id="g3490"><g
       id="g3492"><g
         id="g3494"><g
           id="g3500"><g
             id="g3502"><path
               d="m 528.399,545.089 c 0,-14.721 5.747,-28.091 15.105,-38.019 l 0,0 -70.254,-196.714 c -0.102,0.001 -0.202,0.008 -0.304,0.008 l 0,0 c -30.625,0 -55.451,-24.826 -55.451,-55.453 l 0,0 c 0,-30.625 24.826,-55.452 55.451,-55.452 l 0,0 c 29.823,0 54.136,23.543 55.393,53.056 l 0,0 238.95,74.672 c 10.076,-10.371 24.163,-16.823 39.764,-16.823 l 0,0 c 30.626,0 55.452,24.827 55.452,55.453 l 0,0 c 0,30.625 -24.826,55.452 -55.452,55.452 l 0,0 c -14.028,0 -26.829,-5.22 -36.595,-13.809 l 0,0 -137.275,112.314 c 3.904,7.592 6.121,16.191 6.121,25.315 l 0,0 c 0,30.625 -24.827,55.451 -55.452,55.451 l 0,0 c -30.626,0 -55.453,-24.826 -55.453,-55.451 m 90.841,-42.69 137.754,-112.708 c -3.455,-7.231 -5.393,-15.326 -5.393,-23.874 l 0,0 c 0,-6.725 1.198,-13.169 3.391,-19.133 l 0,0 -230.254,-71.954 c -5.302,13.844 -15.987,25.016 -29.5,30.957 l 0,0 67.225,188.229 c 6.582,-2.755 13.806,-4.28 21.389,-4.28 l 0,0 c 13.453,0 25.786,4.793 35.388,12.763"
               id="path3510"
               style="fill:url(#linearGradient3504);stroke:none" /></g></g></g></g></g></svg>