<?xml version="1.0" encoding="UTF-8" standalone="no"?>
<!-- Created with Inkscape (http://www.inkscape.org/) -->

<svg
   xmlns:dc="http://purl.org/dc/elements/1.1/"
   xmlns:cc="http://creativecommons.org/ns#"
   xmlns:rdf="http://www.w3.org/1999/02/22-rdf-syntax-ns#"
   xmlns:svg="http://www.w3.org/2000/svg"
   xmlns="http://www.w3.org/2000/svg"
   version="1.1"
   width="1032.3175"
   height="208.82249"
   id="svg3274"
   xml:space="preserve"><metadata
     id="metadata3280"><rdf:RDF><cc:Work
         rdf:about=""><dc:format>image/svg+xml</dc:format><dc:type
           rdf:resource="http://purl.org/dc/dcmitype/StillImage" /><dc:title></dc:title></cc:Work></rdf:RDF></metadata><defs
     id="defs3278"><linearGradient
       x1="0"
       y1="0"
       x2="1"
       y2="0"
       id="linearGradient3296"
       gradientUnits="userSpaceOnUse"
       gradientTransform="matrix(0,186.2713,186.2713,0,501.00714,311.37192)"
       spreadMethod="pad"><stop
         id="stop3298"
         style="stop-color:#039be5;stop-opacity:1"
         offset="0" /><stop
         id="stop3300"
         style="stop-color:#99dfff;stop-opacity:1"
         offset="1" /></linearGradient><linearGradient
       x1="0"
       y1="0"
       x2="1"
       y2="0"
       id="linearGradient3316"
       gradientUnits="userSpaceOnUse"
       gradientTransform="matrix(0,186.2713,186.2713,0,556.08362,311.37192)"
       spreadMethod="pad"><stop
         id="stop3318"
         style="stop-color:#039be5;stop-opacity:1"
         offset="0" /><stop
         id="stop3320"
         style="stop-color:#99dfff;stop-opacity:1"
         offset="1" /></linearGradient><linearGradient
       x1="0"
       y1="0"
       x2="1"
       y2="0"
       id="linearGradient3336"
       gradientUnits="userSpaceOnUse"
       gradientTransform="matrix(0,186.2713,186.2713,0,615.96204,311.37192)"
       spreadMethod="pad"><stop
         id="stop3338"
         style="stop-color:#039be5;stop-opacity:1"
         offset="0" /><stop
         id="stop3340"
         style="stop-color:#99dfff;stop-opacity:1"
         offset="1" /></linearGradient><linearGradient
       x1="0"
       y1="0"
       x2="1"
       y2="0"
       id="linearGradient3356"
       gradientUnits="userSpaceOnUse"
       gradientTransform="matrix(0,186.2713,186.2713,0,682.03979,311.37192)"
       spreadMethod="pad"><stop
         id="stop3358"
         style="stop-color:#039be5;stop-opacity:1"
         offset="0" /><stop
         id="stop3360"
         style="stop-color:#99dfff;stop-opacity:1"
         offset="1" /></linearGradient><linearGradient
       x1="0"
       y1="0"
       x2="1"
       y2="0"
       id="linearGradient3376"
       gradientUnits="userSpaceOnUse"
       gradientTransform="matrix(0,186.2713,186.2713,0,752.1142,311.37192)"
       spreadMethod="pad"><stop
         id="stop3378"
         style="stop-color:#039be5;stop-opacity:1"
         offset="0" /><stop
         id="stop3380"
         style="stop-color:#99dfff;stop-opacity:1"
         offset="1" /></linearGradient><linearGradient
       x1="0"
       y1="0"
       x2="1"
       y2="0"
       id="linearGradient3396"
       gradientUnits="userSpaceOnUse"
       gradientTransform="matrix(0,186.2713,186.2713,0,824.31787,311.37192)"
       spreadMethod="pad"><stop
         id="stop3398"
         style="stop-color:#039be5;stop-opacity:1"
         offset="0" /><stop
         id="stop3400"
         style="stop-color:#99dfff;stop-opacity:1"
         offset="1" /></linearGradient><linearGradient
       x1="0"
       y1="0"
       x2="1"
       y2="0"
       id="linearGradient3416"
       gradientUnits="userSpaceOnUse"
       gradientTransform="matrix(0,186.2713,186.2713,0,890.40527,311.37192)"
       spreadMethod="pad"><stop
         id="stop3418"
         style="stop-color:#039be5;stop-opacity:1"
         offset="0" /><stop
         id="stop3420"
         style="stop-color:#99dfff;stop-opacity:1"
         offset="1" /></linearGradient><linearGradient
       x1="0"
       y1="0"
       x2="1"
       y2="0"
       id="linearGradient3436"
       gradientUnits="userSpaceOnUse"
       gradientTransform="matrix(0,186.2713,186.2713,0,1019.29,311.37192)"
       spreadMethod="pad"><stop
         id="stop3438"
         style="stop-color:#039be5;stop-opacity:1"
         offset="0" /><stop
         id="stop3440"
         style="stop-color:#99dfff;stop-opacity:1"
         offset="1" /></linearGradient><linearGradient
       x1="0"
       y1="0"
       x2="1"
       y2="0"
       id="linearGradient3456"
       gradientUnits="userSpaceOnUse"
       gradientTransform="matrix(0,186.2713,186.2713,0,959.30493,311.37192)"
       spreadMethod="pad"><stop
         id="stop3458"
         style="stop-color:#039be5;stop-opacity:1"
         offset="0" /><stop
         id="stop3460"
         style="stop-color:#99dfff;stop-opacity:1"
         offset="1" /></linearGradient><linearGradient
       x1="0"
       y1="0"
       x2="1"
       y2="0"
       id="linearGradient3476"
       gradientUnits="userSpaceOnUse"
       gradientTransform="matrix(0,227.0434,227.0434,0,319.75021,293.01901)"
       spreadMethod="pad"><stop
         id="stop3478"
         style="stop-color:#039be5;stop-opacity:1"
         offset="0" /><stop
         id="stop3480"
         style="stop-color:#99dfff;stop-opacity:1"
         offset="1" /></linearGradient></defs><g
     transform="matrix(1.25,0,0,-1.25,-283.84125,598.435)"
     id="g3282"><g
       id="g3284"><g
         id="g3286"><g
           id="g3292"><g
             id="g3294"><path
               d="m 515.442,438.136 c -4.229,0 -8.03,-0.618 -11.402,-1.853 l 0,0 c -3.375,-1.236 -6.237,-3.019 -8.588,-5.345 l 0,0 c -2.352,-2.328 -4.158,-5.156 -5.416,-8.481 l 0,0 c -1.26,-3.326 -1.89,-7.08 -1.89,-11.26 l 0,0 0,-5.417 -9.543,0 c -1.408,0 -1.36,-7.198 -1.36,-7.198 l 0,0 c 0,-1.282 0.415,-2.28 1.247,-2.992 l 0,0 c 0.831,-0.713 1.935,-1.188 3.314,-1.426 l 0,0 6.342,-0.998 0,-59.864 17.604,0 0,59.936 14.625,0 c 3.136,0 6.278,12.542 2.626,12.542 l 0,0 -17.821,0 0,4.847 c 0,2.708 0.296,4.976 0.89,6.806 l 0,0 c 0.594,1.828 1.462,3.301 2.602,4.418 l 0,0 c 1.14,1.116 2.53,1.9 4.169,2.352 l 0,0 c 1.639,0.451 3.503,0.677 5.594,0.677 l 0,0 c 1.568,0 2.946,0.166 4.134,0.499 l 0,0 c 1.187,0.332 1.828,1.187 1.924,2.566 l 0,0 c 0,0 0.567,7.267 0.082,8.707 l 0,0 c -0.499,1.481 -5.71,1.484 -9.084,1.484 l 0,0 c -0.017,0 -0.033,0 -0.049,0"
               id="path3302"
               style="fill:url(#linearGradient3296);stroke:none" /></g></g></g></g><g
       id="g3304"><g
         id="g3306"><g
           id="g3312"><g
             id="g3314"><path
               d="m 557.916,403.856 c -3.516,-2.614 -6.581,-6.177 -9.193,-10.69 l 0,0 -1.069,8.837 c -0.239,1.615 -0.713,2.755 -1.426,3.421 l 0,0 c -0.712,0.665 -1.972,0.998 -3.776,0.998 l 0,0 c 0,0 -10.334,0.62 -10.334,-2.611 l 0,0 0,-70.509 17.602,0 0,45.539 c 0,4.293 4.015,6.853 6.629,8.874 l 0,0 c 2.611,2.018 5.747,3.028 9.406,3.028 l 0,0 c 2.042,0 3.682,-0.167 4.918,-0.498 l 0,0 c 1.235,-0.334 2.209,-0.5 2.922,-0.5 l 0,0 c 0.807,0 1.448,0.179 1.924,0.535 l 0,0 c 0.475,0.356 0.929,0.923 1.284,1.785 l 0,0 c 0,0 4.02,9.366 3.113,12.44 l 0,0 c -0.956,3.24 -6.559,3.271 -10.169,3.271 l 0,0 c -4.372,0 -8.315,-1.307 -11.831,-3.92"
               id="path3322"
               style="fill:url(#linearGradient3316);stroke:none" /></g></g></g></g><g
       id="g3324"><g
         id="g3326"><g
           id="g3332"><g
             id="g3334"><path
               d="m 602.992,404.711 c -4.348,-1.901 -8.03,-4.478 -11.047,-7.732 l 0,0 c -3.017,-3.255 -5.334,-7.08 -6.949,-11.474 l 0,0 c -1.615,-4.395 -2.422,-9.086 -2.422,-14.075 l 0,0 c 0,-6.413 0.926,-12.056 2.779,-16.925 l 0,0 c 1.853,-4.871 4.394,-8.957 7.625,-12.258 l 0,0 c 3.231,-3.303 7.031,-5.797 11.403,-7.484 l 0,0 c 4.371,-1.686 9.098,-2.53 14.182,-2.53 l 0,0 c 2.566,0 5.213,0.191 7.946,0.57 l 0,0 c 2.732,0.381 5.417,1.034 8.053,1.96 l 0,0 c 2.637,0.927 5.167,2.162 7.591,3.706 l 0,0 c 2.423,1.544 5.619,3.754 6.556,5.737 l 0,0 c 0.709,1.501 -3.357,4.719 -4.838,6.141 l 0,0 c -0.726,0.694 -1.125,1.199 -1.647,1.485 l 0,0 c -0.523,0.286 -1.141,0.427 -1.853,0.427 l 0,0 c -1.094,0 -2.222,-0.333 -3.385,-0.997 l 0,0 c -1.165,-0.666 -2.519,-1.402 -4.063,-2.21 l 0,0 c -1.544,-0.808 -3.349,-1.544 -5.416,-2.209 l 0,0 c -2.066,-0.666 -4.525,-0.997 -7.376,-0.997 l 0,0 c -5.797,0 -10.452,1.756 -13.968,5.273 l 0,0 c -3.517,3.515 -5.535,9.026 -6.057,16.534 l 0,0 45.182,0 c 0.808,0 1.472,0.107 1.996,0.321 l 0,0 c 0.522,0.213 0.937,0.57 1.247,1.068 l 0,0 c 0.309,0.5 0.522,1.187 0.642,2.068 l 0,0 c 0.118,0.878 0.177,1.982 0.177,3.313 l 0,0 c 0,5.274 -0.784,9.965 -2.352,14.076 l 0,0 c -1.567,4.109 -3.754,7.578 -6.556,10.404 l 0,0 c -2.804,2.826 -6.141,4.976 -10.013,6.45 l 0,0 c -3.872,1.472 -8.113,2.209 -12.721,2.209 l 0,0 c -5.464,0 -10.369,-0.951 -14.716,-2.851 m 3.028,-14.11 c 2.897,2.897 6.913,4.347 12.044,4.347 l 0,0 c 2.613,0 4.893,-0.439 6.842,-1.319 l 0,0 c 1.948,-0.879 3.563,-2.079 4.847,-3.598 l 0,0 c 1.282,-1.522 2.231,-3.291 2.85,-5.31 l 0,0 c 0.616,-2.019 0.926,-4.169 0.926,-6.449 l 0,0 -33.068,0 c 0.807,5.321 2.66,9.43 5.559,12.329"
               id="path3342"
               style="fill:url(#linearGradient3336);stroke:none" /></g></g></g></g><g
       id="g3344"><g
         id="g3346"><g
           id="g3352"><g
             id="g3354"><path
               d="m 672.189,405.745 c -3.445,-1.211 -6.319,-2.828 -8.623,-4.846 l 0,0 c -2.305,-2.02 -4.051,-4.383 -5.238,-7.091 l 0,0 c -1.189,-2.709 -1.782,-5.559 -1.782,-8.552 l 0,0 c 0,-3.232 0.511,-5.986 1.532,-8.268 l 0,0 c 1.022,-2.28 2.375,-4.204 4.063,-5.771 l 0,0 c 1.685,-1.568 3.61,-2.864 5.772,-3.885 l 0,0 c 2.161,-1.022 4.371,-1.913 6.628,-2.673 l 0,0 c 2.256,-0.76 4.465,-1.46 6.628,-2.101 l 0,0 c 2.161,-0.642 4.086,-1.367 5.772,-2.175 l 0,0 c 1.687,-0.808 3.04,-1.757 4.063,-2.85 l 0,0 c 1.021,-1.093 1.532,-2.495 1.532,-4.205 l 0,0 c 0,-1.14 -0.226,-2.244 -0.677,-3.314 l 0,0 c -0.452,-1.069 -1.165,-2.007 -2.138,-2.815 l 0,0 c -0.974,-0.808 -2.209,-1.46 -3.706,-1.96 l 0,0 c -1.497,-0.499 -3.29,-0.748 -5.381,-0.748 l 0,0 c -2.661,0 -4.858,0.309 -6.592,0.927 l 0,0 c -1.735,0.617 -3.242,1.283 -4.526,1.995 l 0,0 c -1.282,0.713 -2.411,1.377 -3.385,1.996 l 0,0 c -0.973,0.616 -2.008,0.926 -3.099,0.926 l 0,0 c -1.094,0 -1.996,-0.213 -2.708,-0.642 l 0,0 c -0.713,-0.427 -1.269,-1.089 -1.853,-1.852 l 0,0 c -1.026,-1.342 -2.248,-2.9 -3.293,-5.687 l 0,0 c -0.674,-1.797 2.306,-3.483 4.184,-4.576 l 0,0 c 1.875,-1.093 3.919,-2.043 6.129,-2.85 l 0,0 c 2.208,-0.809 4.512,-1.436 6.913,-1.889 l 0,0 c 2.397,-0.451 4.856,-0.677 7.375,-0.677 l 0,0 c 4.703,0 8.873,0.606 12.507,1.817 l 0,0 c 3.635,1.212 6.687,2.898 9.158,5.06 l 0,0 c 2.47,2.162 4.348,4.728 5.63,7.697 l 0,0 c 1.283,2.969 1.924,6.212 1.924,9.728 l 0,0 c 0,2.946 -0.511,5.463 -1.531,7.554 l 0,0 c -1.023,2.09 -2.377,3.884 -4.063,5.381 l 0,0 c -1.687,1.496 -3.599,2.731 -5.737,3.706 l 0,0 c -2.138,0.973 -4.324,1.84 -6.556,2.601 l 0,0 c -2.234,0.759 -4.419,1.461 -6.558,2.102 l 0,0 c -2.137,0.642 -4.05,1.366 -5.736,2.174 l 0,0 c -1.687,0.807 -3.041,1.746 -4.063,2.815 l 0,0 c -1.021,1.069 -1.532,2.388 -1.532,3.956 l 0,0 c 0,2.375 0.999,4.299 2.994,5.772 l 0,0 c 1.995,1.472 4.727,2.21 8.195,2.21 l 0,0 c 2.233,0 4.17,-0.239 5.809,-0.713 l 0,0 c 1.639,-0.475 3.099,-1.011 4.382,-1.604 l 0,0 c 1.283,-0.595 2.411,-1.13 3.386,-1.603 l 0,0 c 0.974,-0.476 1.888,-0.713 2.743,-0.713 l 0,0 c 0.807,0 1.33,0.161 1.853,0.471 l 0,0 c 0.522,0.309 1.068,0.805 1.64,1.596 l 0,0 c 0,0 3.948,4.469 3.99,6.342 l 0,0 c 0.064,2.821 -6.2,4.893 -10.333,6.557 l 0,0 c -4.133,1.663 -8.719,2.494 -13.754,2.494 l 0,0 c -4.515,0 -8.493,-0.605 -11.938,-1.817"
               id="path3362"
               style="fill:url(#linearGradient3356);stroke:none" /></g></g></g></g><g
       id="g3364"><g
         id="g3366"><g
           id="g3372"><g
             id="g3374"><path
               d="m 720.258,333.302 17.602,0 0,49.9 c 0,3.359 4.894,7.232 7.555,8.61 l 0,0 c 2.661,1.377 5.511,2.067 8.552,2.067 l 0,0 c 4.134,0 7.234,-1.223 9.301,-3.671 l 0,0 c 2.066,-2.447 3.099,-5.903 3.099,-10.368 l 0,0 0,-46.538 17.603,0 0,46.538 c 0,4.085 -0.534,7.827 -1.604,11.224 l 0,0 c -1.068,3.396 -2.637,6.318 -4.703,8.765 l 0,0 c -2.066,2.448 -4.644,4.348 -7.733,5.702 l 0,0 c -3.089,1.354 -6.627,2.031 -10.618,2.031 l 0,0 c -4.609,0 -8.623,-0.831 -12.044,-2.494 l 0,0 c -3.421,-1.664 -6.556,-3.849 -9.408,-6.557 l 0,0 0,37.277 c 0,4.225 -17.602,4.225 -17.602,4.225 l 0,0 0,-106.711 z"
               id="path3382"
               style="fill:url(#linearGradient3376);stroke:none" /></g></g></g></g><g
       id="g3384"><g
         id="g3386"><g
           id="g3392"><g
             id="g3394"><path
               d="m 813.759,404.711 c -4.418,-1.901 -8.124,-4.525 -11.117,-7.875 l 0,0 c -2.993,-3.349 -5.263,-7.317 -6.806,-11.901 l 0,0 c -1.545,-4.585 -2.316,-9.562 -2.316,-14.931 l 0,0 c 0,-5.986 0.866,-11.32 2.601,-15.999 l 0,0 c 1.733,-4.68 4.086,-8.635 7.055,-11.866 l 0,0 c 2.969,-3.231 6.45,-5.689 10.441,-7.376 l 0,0 c 3.991,-1.686 8.242,-2.53 12.757,-2.53 l 0,0 c 2.566,0 5.154,0.191 7.768,0.57 l 0,0 c 2.612,0.381 5.142,1.034 7.589,1.96 l 0,0 c 2.447,0.927 4.812,2.162 7.091,3.706 l 0,0 c 2.281,1.544 6.294,4.582 6.294,6.216 l 0,0 c 0,2.745 -5.01,5.935 -5.01,5.935 l 0,0 c -1.35,1.148 -1.782,1.639 -3.208,1.639 l 0,0 c -1.093,0 -2.079,-0.345 -2.957,-1.033 l 0,0 c -0.88,-0.69 -1.913,-1.45 -3.101,-2.281 l 0,0 c -1.188,-0.831 -2.648,-1.592 -4.382,-2.28 l 0,0 c -1.735,-0.69 -4.003,-1.033 -6.806,-1.033 l 0,0 c -2.804,0 -5.321,0.534 -7.554,1.603 l 0,0 c -2.234,1.07 -4.134,2.637 -5.702,4.704 l 0,0 c -1.568,2.066 -2.768,4.619 -3.599,7.661 l 0,0 c -0.831,3.04 -1.247,6.508 -1.247,10.404 l 0,0 c 0,3.753 0.38,7.115 1.141,10.085 l 0,0 c 0.759,2.969 1.912,5.499 3.456,7.59 l 0,0 c 1.543,2.089 3.479,3.693 5.809,4.81 l 0,0 c 2.327,1.116 5.035,1.675 8.124,1.675 l 0,0 c 2.423,0 4.454,-0.274 6.093,-0.82 l 0,0 c 1.639,-0.546 3.052,-1.164 4.241,-1.852 l 0,0 c 1.186,-0.69 2.208,-1.308 3.063,-1.853 l 0,0 c 0.856,-0.547 1.735,-0.82 2.637,-0.82 l 0,0 c 0.951,0 1.675,0.19 2.175,0.57 l 0,0 c 0.498,0.379 1.009,0.902 1.531,1.568 l 0,0 c 0,0 4.683,4.437 4.633,6.414 l 0,0 c -0.078,2.983 -6.929,5.951 -11.038,7.708 l 0,0 c -4.11,1.758 -8.941,2.483 -14.404,2.483 l 0,0 c -5.75,0 -10.833,-0.951 -15.252,-2.851"
               id="path3402"
               style="fill:url(#linearGradient3396);stroke:none" /></g></g></g></g><g
       id="g3404"><g
         id="g3406"><g
           id="g3412"><g
             id="g3414"><path
               d="m 864.507,397.35 c -1.259,-1.677 2.06,-6.749 2.06,-6.749 l 0,0 c 0.522,-0.904 1.211,-1.663 2.066,-2.281 l 0,0 c 0.856,-0.618 1.877,-0.926 3.065,-0.926 l 0,0 c 1.425,0 2.731,0.331 3.919,0.997 l 0,0 c 1.187,0.665 2.482,1.413 3.885,2.245 l 0,0 c 1.401,0.831 3.051,1.579 4.952,2.246 l 0,0 c 1.9,0.665 4.277,0.997 7.127,0.997 l 0,0 c 3.943,0 6.949,-1.185 9.016,-3.554 l 0,0 c 2.066,-2.37 3.099,-6.021 3.099,-10.952 l 0,0 0,-4.308 c -8.314,0 -15.274,-0.716 -20.881,-2.146 l 0,0 c -5.606,-1.43 -10.096,-3.23 -13.469,-5.399 l 0,0 c -3.374,-2.169 -5.784,-4.599 -7.233,-7.292 l 0,0 c -1.451,-2.694 -2.175,-5.423 -2.175,-8.189 l 0,0 c 0,-3.288 0.523,-6.173 1.568,-8.651 l 0,0 c 1.045,-2.479 2.506,-4.553 4.383,-6.222 l 0,0 c 1.877,-1.668 4.122,-2.92 6.736,-3.754 l 0,0 c 2.612,-0.832 5.463,-1.25 8.551,-1.25 l 0,0 c 2.612,0 4.989,0.214 7.127,0.641 l 0,0 c 2.138,0.428 4.157,1.07 6.058,1.925 l 0,0 c 1.899,0.855 3.741,1.912 5.523,3.171 l 0,0 c 1.781,1.259 3.599,2.719 5.452,4.383 l 0,0 1.568,-5.202 c 0.473,-1.521 1.187,-2.53 2.137,-3.03 l 0,0 c 0.95,-0.498 2.257,-0.748 3.92,-0.748 l 0,0 c 0,0 7.911,0.025 7.911,3.257 l 0,0 0,42.924 c 0,4.133 -0.606,7.935 -1.817,11.403 l 0,0 c -1.213,3.468 -2.983,6.45 -5.309,8.943 l 0,0 c -2.329,2.495 -5.168,4.443 -8.518,5.844 l 0,0 c -3.349,1.401 -7.24,2.332 -11.516,2.332 l 0,0 c -11.879,0 -21.492,-0.37 -29.205,-10.655 m 14.995,-51.062 c -1.83,1.339 -2.744,3.564 -2.744,6.675 l 0,0 c 0,1.579 0.439,3.037 1.318,4.377 l 0,0 c 0.878,1.34 2.363,2.512 4.454,3.518 l 0,0 c 2.091,1.005 4.857,1.831 8.303,2.477 l 0,0 c 3.444,0.646 7.732,0.969 12.863,0.969 l 0,0 0,-12.239 c -1.282,-1.31 -2.554,-2.445 -3.812,-3.403 l 0,0 c -1.26,-0.96 -2.566,-1.765 -3.92,-2.42 l 0,0 c -1.354,-0.656 -2.791,-1.146 -4.312,-1.474 l 0,0 c -1.521,-0.327 -3.183,-0.491 -4.988,-0.491 l 0,0 c -2.947,0 -5.335,0.67 -7.162,2.011"
               id="path3422"
               style="fill:url(#linearGradient3416);stroke:none" /></g></g></g></g><g
       id="g3424"><g
         id="g3426"><g
           id="g3432"><g
             id="g3434"><path
               d="m 1035.326,438.228 0,-37.65 c -2.282,2.185 -4.872,3.931 -7.769,5.238 l 0,0 c -2.899,1.306 -6.391,1.96 -10.477,1.96 l 0,0 c -4.799,0 -9.121,-0.962 -12.97,-2.887 l 0,0 c -3.848,-1.924 -7.151,-4.596 -9.906,-8.017 l 0,0 c -2.756,-3.421 -4.87,-7.459 -6.342,-12.115 l 0,0 c -1.474,-4.656 -2.21,-9.692 -2.21,-15.108 l 0,0 c 0,-5.987 0.653,-11.309 1.959,-15.964 l 0,0 c 1.307,-4.657 3.16,-8.565 5.56,-11.724 l 0,0 c 2.398,-3.16 5.261,-5.571 8.587,-7.233 l 0,0 c 3.326,-1.662 6.984,-2.495 10.976,-2.495 l 0,0 c 2.565,0 4.953,0.275 7.161,0.82 l 0,0 c 2.211,0.545 4.277,1.319 6.201,2.316 l 0,0 c 1.925,0.998 3.717,2.185 5.38,3.563 l 0,0 c 1.664,1.378 3.254,2.922 4.775,4.633 l 0,0 1.426,-7.056 c 0.712,-2.137 2.209,-3.207 4.489,-3.207 l 0,0 c 0,0 10.761,0.025 10.761,3.257 l 0,0 0,100.221 c 0,0 -9.294,3.089 -14.374,3.088 l 0,0 c -1.911,0 -3.227,-0.437 -3.227,-1.64 m -22.806,-90.779 c -1.853,0.83 -3.421,2.185 -4.704,4.062 l 0,0 c -1.283,1.877 -2.269,4.299 -2.958,7.269 l 0,0 c -0.689,2.969 -1.033,6.592 -1.033,10.869 l 0,0 c 0,4.227 0.403,7.897 1.212,11.01 l 0,0 c 0.807,3.112 1.96,5.677 3.456,7.697 l 0,0 c 1.497,2.019 3.325,3.527 5.487,4.526 l 0,0 c 2.162,0.997 4.572,1.496 7.235,1.496 l 0,0 c 2.707,0 5.237,-0.499 7.588,-1.496 l 0,0 c 2.353,-0.999 4.527,-2.709 6.523,-5.132 l 0,0 0,-32.783 c -2.282,-2.803 -4.705,-4.965 -7.27,-6.485 l 0,0 c -2.565,-1.52 -5.678,-2.281 -9.336,-2.281 l 0,0 c -2.281,0 -4.347,0.416 -6.2,1.248"
               id="path3442"
               style="fill:url(#linearGradient3436);stroke:none" /></g></g></g></g><g
       id="g3444"><g
         id="g3446"><g
           id="g3452"><g
             id="g3454"><path
               d="m 961.138,403.881 c -3.517,-2.613 -6.582,-6.177 -9.194,-10.69 l 0,0 -1.069,8.837 c -0.238,1.615 -0.713,2.755 -1.425,3.421 l 0,0 c -0.713,0.665 -1.972,0.997 -3.778,0.997 l 0,0 c 0,0 -10.333,0.621 -10.333,-2.611 l 0,0 0,-70.508 17.603,0 0,45.54 c 0,4.293 4.014,6.852 6.628,8.872 l 0,0 c 2.612,2.019 5.748,3.028 9.407,3.028 l 0,0 c 2.042,0 3.681,-0.166 4.917,-0.498 l 0,0 c 1.235,-0.332 2.209,-0.499 2.922,-0.499 l 0,0 c 0.807,0 1.449,0.178 1.924,0.535 l 0,0 c 0.474,0.356 0.93,0.922 1.284,1.785 l 0,0 c 0,0 4.021,9.365 3.114,12.44 l 0,0 c -0.956,3.24 -6.56,3.271 -10.171,3.271 l 0,0 c -4.371,0 -8.314,-1.308 -11.829,-3.92"
               id="path3462"
               style="fill:url(#linearGradient3456);stroke:none" /></g></g></g></g><g
       id="g3464"><g
         id="g3466"><g
           id="g3472"><g
             id="g3474"><path
               d="m 273.266,455.651 c 0,-6.132 2.394,-11.7 6.292,-15.835 l 0,0 -29.263,-81.936 c -0.042,10e-4 -0.083,0.004 -0.126,0.004 l 0,0 c -12.756,0 -23.096,-10.341 -23.096,-23.097 l 0,0 c 0,-12.756 10.34,-23.097 23.096,-23.097 l 0,0 c 12.422,0 22.549,9.806 23.072,22.098 l 0,0 99.527,31.103 c 4.197,-4.319 10.065,-7.007 16.563,-7.007 l 0,0 c 12.757,0 23.097,10.341 23.097,23.097 l 0,0 c 0,12.756 -10.34,23.097 -23.097,23.097 l 0,0 c -5.843,0 -11.175,-2.174 -15.243,-5.751 l 0,0 -57.177,46.781 c 1.626,3.161 2.549,6.743 2.549,10.543 l 0,0 c 0,12.756 -10.341,23.097 -23.097,23.097 l 0,0 c -12.756,0 -23.097,-10.341 -23.097,-23.097 m 37.837,-17.781 57.378,-46.945 c -1.439,-3.012 -2.247,-6.384 -2.247,-9.944 l 0,0 c 0,-2.801 0.499,-5.485 1.412,-7.969 l 0,0 -95.905,-29.97 c -2.208,5.767 -6.659,10.419 -12.287,12.894 l 0,0 28.001,78.401 c 2.741,-1.147 5.751,-1.783 8.908,-1.783 l 0,0 c 5.604,0 10.74,1.997 14.74,5.316"
               id="path3482"
               style="fill:url(#linearGradient3476);stroke:none" /></g></g></g></g></g></svg>