<?xml version="1.0" encoding="UTF-8" standalone="no"?>
<!-- Created with Inkscape (http://www.inkscape.org/) -->

<svg
   xmlns:dc="http://purl.org/dc/elements/1.1/"
   xmlns:cc="http://creativecommons.org/ns#"
   xmlns:rdf="http://www.w3.org/1999/02/22-rdf-syntax-ns#"
   xmlns:svg="http://www.w3.org/2000/svg"
   xmlns="http://www.w3.org/2000/svg"
   version="1.1"
   width="1032.3191"
   height="208.82249"
   id="svg2985"
   xml:space="preserve"><metadata
     id="metadata2991"><rdf:RDF><cc:Work
         rdf:about=""><dc:format>image/svg+xml</dc:format><dc:type
           rdf:resource="http://purl.org/dc/dcmitype/StillImage" /><dc:title></dc:title></cc:Work></rdf:RDF></metadata><defs
     id="defs2989"><clipPath
       id="clipPath3001"><path
         d="M 0,800 1280,800 1280,0 0,0 0,800 z"
         id="path3003" /></clipPath></defs><g
     transform="matrix(1.25,0,0,-1.25,-283.8405,598.43487)"
     id="g2993"><path
       d="m 0,0 1280,0 0,800 L 0,800 0,0 z"
       id="path2995"
       style="fill:#039be5;fill-opacity:1;fill-rule:nonzero;stroke:none" /><g
       id="g2997"><g
         clip-path="url(#clipPath3001)"
         id="g2999"><g
           transform="translate(488.1469,333.3024)"
           id="g3005"><path
             d="m 0,0 0,59.864 -6.343,0.998 c -1.378,0.237 -2.483,0.712 -3.314,1.425 -0.832,0.713 -1.247,1.711 -1.247,2.993 0,0 -0.047,7.198 1.36,7.198 l 9.544,0 0,5.416 c 0,4.181 0.629,7.934 1.889,11.261 1.258,3.325 3.064,6.152 5.416,8.481 2.352,2.326 5.213,4.108 8.588,5.345 3.373,1.234 7.173,1.852 11.402,1.852 3.373,0 8.631,0.005 9.133,-1.484 0.486,-1.439 -0.082,-8.707 -0.082,-8.707 -0.096,-1.378 -0.737,-2.234 -1.924,-2.566 -1.189,-0.332 -2.566,-0.498 -4.134,-0.498 -2.091,0 -3.955,-0.226 -5.594,-0.677 -1.639,-0.452 -3.029,-1.236 -4.169,-2.352 -1.14,-1.117 -2.008,-2.59 -2.601,-4.419 -0.595,-1.829 -0.891,-4.097 -0.891,-6.806 l 0,-4.846 17.821,0 c 3.652,0 0.51,-12.543 -2.626,-12.543 l -14.625,0 L 17.603,0 0,0 z"
             id="path3007"
             style="fill:#ffffff;fill-opacity:1;fill-rule:nonzero;stroke:none" /></g><g
           transform="translate(532.1179,333.3024)"
           id="g3009"><path
             d="m 0,0 0,70.509 c 0,3.231 10.333,2.611 10.333,2.611 1.805,0 3.065,-0.333 3.777,-0.998 0.713,-0.666 1.188,-1.806 1.426,-3.421 l 1.069,-8.837 c 2.612,4.513 5.677,8.076 9.194,10.69 3.515,2.612 7.458,3.92 11.83,3.92 3.61,0 9.213,-0.031 10.169,-3.271 0.908,-3.075 -3.113,-12.44 -3.113,-12.44 -0.355,-0.862 -0.809,-1.429 -1.284,-1.785 -0.475,-0.356 -1.117,-0.535 -1.924,-0.535 -0.713,0 -1.687,0.166 -2.922,0.499 -1.236,0.332 -2.875,0.499 -4.917,0.499 -3.66,0 -6.795,-1.01 -9.407,-3.029 -2.614,-2.02 -6.628,-4.579 -6.628,-8.873 L 17.603,0 0,0 z"
             id="path3011"
             style="fill:#ffffff;fill-opacity:1;fill-rule:nonzero;stroke:none" /></g><g
           transform="translate(618.0645,394.948)"
           id="g3013"><path
             d="m 0,0 c -5.131,0 -9.147,-1.45 -12.044,-4.347 -2.899,-2.899 -4.752,-7.009 -5.559,-12.33 l 33.068,0 c 0,2.281 -0.31,4.431 -0.927,6.45 -0.617,2.019 -1.568,3.789 -2.85,5.31 -1.283,1.519 -2.899,2.719 -4.846,3.599 C 4.893,-0.44 2.612,0 0,0 m -0.357,12.614 c 4.609,0 8.849,-0.737 12.722,-2.209 3.871,-1.473 7.209,-3.623 10.013,-6.449 2.802,-2.828 4.989,-6.296 6.556,-10.406 1.568,-4.11 2.352,-8.801 2.352,-14.075 0,-1.33 -0.06,-2.435 -0.178,-3.314 -0.119,-0.879 -0.333,-1.567 -0.642,-2.066 -0.309,-0.499 -0.725,-0.856 -1.247,-1.069 -0.523,-0.214 -1.188,-0.321 -1.995,-0.321 l -45.183,0 c 0.522,-7.508 2.541,-13.019 6.058,-16.534 3.515,-3.517 8.171,-5.274 13.968,-5.274 2.85,0 5.309,0.332 7.376,0.998 2.067,0.665 3.872,1.401 5.416,2.209 1.543,0.808 2.898,1.544 4.062,2.21 1.164,0.664 2.292,0.997 3.385,0.997 0.713,0 1.331,-0.142 1.853,-0.427 0.523,-0.286 0.922,-0.79 1.647,-1.486 1.482,-1.421 5.548,-4.638 4.839,-6.14 -0.937,-1.983 -4.134,-4.193 -6.557,-5.737 -2.423,-1.544 -4.953,-2.779 -7.59,-3.705 -2.637,-0.927 -5.321,-1.579 -8.053,-1.961 -2.733,-0.379 -5.381,-0.57 -7.946,-0.57 -5.085,0 -9.811,0.845 -14.182,2.531 -4.372,1.685 -8.173,4.18 -11.403,7.482 -3.232,3.302 -5.773,7.388 -7.625,12.258 -1.853,4.87 -2.78,10.512 -2.78,16.926 0,4.989 0.807,9.68 2.423,14.075 1.615,4.394 3.931,8.219 6.949,11.474 3.016,3.254 6.699,5.832 11.046,7.733 4.347,1.899 9.252,2.85 14.716,2.85"
             id="path3015"
             style="fill:#ffffff;fill-opacity:1;fill-rule:nonzero;stroke:none" /></g><g
           transform="translate(704.2236,392.1686)"
           id="g3017"><path
             d="m 0,0 c -0.572,-0.791 -1.117,-1.287 -1.639,-1.596 -0.524,-0.309 -1.046,-0.471 -1.853,-0.471 -0.855,0 -1.77,0.237 -2.744,0.713 -0.974,0.474 -2.102,1.009 -3.385,1.603 -1.283,0.594 -2.744,1.129 -4.383,1.604 -1.639,0.474 -3.575,0.713 -5.808,0.713 -3.469,0 -6.2,-0.738 -8.196,-2.21 -1.995,-1.473 -2.993,-3.397 -2.993,-5.772 0,-1.568 0.51,-2.886 1.532,-3.955 1.021,-1.07 2.376,-2.008 4.063,-2.816 1.685,-0.808 3.599,-1.532 5.736,-2.173 2.139,-0.642 4.323,-1.343 6.557,-2.102 2.233,-0.761 4.419,-1.629 6.557,-2.602 2.137,-0.974 4.05,-2.209 5.736,-3.705 1.686,-1.497 3.041,-3.291 4.063,-5.382 1.021,-2.091 1.532,-4.608 1.532,-7.554 0,-3.516 -0.641,-6.759 -1.924,-9.727 -1.283,-2.97 -3.161,-5.536 -5.63,-7.697 -2.471,-2.163 -5.523,-3.849 -9.158,-5.06 -3.635,-1.212 -7.804,-1.817 -12.507,-1.817 -2.519,0 -4.978,0.226 -7.376,0.676 -2.4,0.453 -4.704,1.081 -6.913,1.889 -2.21,0.808 -4.253,1.757 -6.129,2.851 -1.878,1.092 -4.857,2.779 -4.183,4.575 1.045,2.787 2.266,4.346 3.292,5.687 0.584,0.764 1.14,1.426 1.853,1.853 0.713,0.428 1.614,0.641 2.708,0.641 1.092,0 2.126,-0.309 3.1,-0.926 0.973,-0.618 2.102,-1.283 3.385,-1.995 1.283,-0.713 2.791,-1.379 4.525,-1.996 1.734,-0.618 3.931,-0.926 6.593,-0.926 2.09,0 3.884,0.249 5.381,0.748 1.496,0.499 2.731,1.151 3.705,1.96 0.973,0.807 1.686,1.746 2.138,2.815 0.451,1.069 0.677,2.173 0.677,3.313 0,1.711 -0.511,3.112 -1.532,4.205 -1.022,1.093 -2.376,2.043 -4.062,2.851 -1.687,0.807 -3.611,1.532 -5.773,2.174 -2.162,0.641 -4.371,1.341 -6.627,2.102 -2.257,0.759 -4.467,1.65 -6.628,2.673 -2.163,1.021 -4.087,2.316 -5.773,3.884 -1.687,1.567 -3.041,3.491 -4.062,5.772 -1.022,2.281 -1.532,5.036 -1.532,8.267 0,2.994 0.593,5.844 1.781,8.552 1.187,2.708 2.933,5.071 5.239,7.091 2.303,2.019 5.178,3.635 8.623,4.846 3.444,1.212 7.423,1.817 11.937,1.817 5.036,0 9.621,-0.831 13.754,-2.494 C -2.209,11.236 4.055,9.164 3.991,6.343 3.949,4.47 0,0 0,0"
             id="path3019"
             style="fill:#ffffff;fill-opacity:1;fill-rule:nonzero;stroke:none" /></g><g
           transform="translate(720.2582,333.3024)"
           id="g3021"><path
             d="m 0,0 0,106.711 c 0,0 17.603,0 17.603,-4.225 l 0,-37.277 c 2.851,2.708 5.986,4.893 9.407,6.557 3.421,1.662 7.435,2.494 12.044,2.494 3.991,0 7.53,-0.677 10.619,-2.031 3.088,-1.354 5.666,-3.255 7.732,-5.701 2.067,-2.448 3.635,-5.37 4.704,-8.766 1.068,-3.398 1.603,-7.139 1.603,-11.225 l 0,-46.537 -17.603,0 0,46.537 c 0,4.465 -1.033,7.922 -3.1,10.369 -2.066,2.447 -5.167,3.671 -9.3,3.671 -3.041,0 -5.892,-0.69 -8.552,-2.067 -2.661,-1.379 -7.554,-5.251 -7.554,-8.611 L 17.603,0 0,0 z"
             id="path3023"
             style="fill:#ffffff;fill-opacity:1;fill-rule:nonzero;stroke:none" /></g><g
           transform="translate(849.8204,390.9572)"
           id="g3025"><path
             d="m 0,0 c -0.523,-0.666 -1.033,-1.188 -1.532,-1.568 -0.499,-0.381 -1.224,-0.57 -2.174,-0.57 -0.903,0 -1.781,0.273 -2.637,0.819 -0.855,0.546 -1.877,1.164 -3.064,1.853 -1.188,0.688 -2.601,1.307 -4.24,1.853 -1.64,0.546 -3.671,0.82 -6.094,0.82 -3.089,0 -5.797,-0.559 -8.124,-1.675 -2.329,-1.117 -4.265,-2.72 -5.809,-4.81 -1.544,-2.092 -2.696,-4.622 -3.456,-7.59 -0.76,-2.97 -1.14,-6.332 -1.14,-10.085 0,-3.896 0.415,-7.365 1.247,-10.404 0.831,-3.042 2.031,-5.595 3.599,-7.662 1.568,-2.066 3.468,-3.634 5.701,-4.703 2.233,-1.069 4.751,-1.604 7.555,-1.604 2.803,0 5.071,0.344 6.806,1.034 1.733,0.688 3.194,1.448 4.382,2.28 1.188,0.831 2.221,1.591 3.101,2.281 0.878,0.688 1.864,1.033 2.957,1.033 1.426,0 1.857,-0.491 3.207,-1.639 0,0 5.011,-3.191 5.011,-5.936 0,-1.633 -4.013,-4.672 -6.294,-6.215 -2.28,-1.545 -4.644,-2.779 -7.091,-3.706 -2.447,-0.926 -4.977,-1.579 -7.589,-1.96 -2.614,-0.379 -5.203,-0.57 -7.769,-0.57 -4.514,0 -8.765,0.844 -12.756,2.53 -3.991,1.686 -7.472,4.145 -10.441,7.376 -2.97,3.231 -5.322,7.186 -7.055,11.866 -1.735,4.679 -2.602,10.013 -2.602,15.999 0,5.369 0.772,10.345 2.317,14.931 1.543,4.584 3.812,8.552 6.805,11.901 2.994,3.35 6.7,5.975 11.118,7.875 4.419,1.9 9.502,2.851 15.251,2.851 5.463,0 10.294,-0.725 14.404,-2.483 C -2.297,12.364 4.555,9.397 4.632,6.414 4.683,4.437 0,0 0,0"
             id="path3027"
             style="fill:#ffffff;fill-opacity:1;fill-rule:nonzero;stroke:none" /></g><g
           transform="translate(886.6635,344.2773)"
           id="g3029"><path
             d="m 0,0 c 1.805,0 3.468,0.164 4.989,0.491 1.52,0.328 2.957,0.819 4.312,1.473 1.354,0.655 2.66,1.461 3.919,2.42 1.259,0.959 2.53,2.094 3.813,3.403 l 0,12.239 c -5.131,0 -9.419,-0.323 -12.864,-0.969 -3.445,-0.646 -6.212,-1.472 -8.302,-2.476 -2.091,-1.006 -3.576,-2.178 -4.454,-3.518 -0.88,-1.34 -1.319,-2.798 -1.319,-4.377 0,-3.111 0.914,-5.336 2.744,-6.676 C -5.333,0.669 -2.946,0 0,0 m 34.209,-7.719 c 0,-3.231 -7.911,-3.256 -7.911,-3.256 -1.664,0 -2.97,0.249 -3.92,0.748 -0.95,0.499 -1.664,1.508 -2.138,3.029 l -1.568,5.203 c -1.853,-1.664 -3.67,-3.125 -5.452,-4.383 -1.782,-1.26 -3.623,-2.316 -5.523,-3.171 -1.901,-0.856 -3.919,-1.497 -6.058,-1.925 -2.138,-0.427 -4.514,-0.641 -7.126,-0.641 -3.089,0 -5.94,0.417 -8.552,1.25 -2.613,0.835 -4.858,2.086 -6.735,3.754 -1.878,1.668 -3.338,3.743 -4.383,6.221 -1.046,2.479 -1.568,5.363 -1.568,8.652 0,2.765 0.724,5.495 2.174,8.189 1.449,2.692 3.86,5.123 7.234,7.292 3.372,2.169 7.863,3.969 13.469,5.398 5.606,1.43 12.566,2.146 20.881,2.146 l 0,4.309 c 0,4.93 -1.033,8.582 -3.1,10.951 -2.066,2.37 -5.072,3.555 -9.015,3.555 -2.851,0 -5.227,-0.333 -7.127,-0.998 -1.9,-0.666 -3.552,-1.414 -4.953,-2.245 -1.402,-0.832 -2.697,-1.58 -3.884,-2.245 -1.188,-0.666 -2.494,-0.997 -3.92,-0.997 -1.188,0 -2.209,0.308 -3.064,0.926 -0.855,0.617 -1.545,1.377 -2.067,2.28 0,0 -3.317,5.073 -2.06,6.75 7.714,10.285 17.327,10.655 29.206,10.655 4.276,0 8.167,-0.931 11.516,-2.332 3.35,-1.401 6.188,-3.349 8.517,-5.843 2.327,-2.495 4.097,-5.477 5.309,-8.944 1.212,-3.469 1.818,-7.27 1.818,-11.403 l 0,-42.925 z"
             id="path3031"
             style="fill:#ffffff;fill-opacity:1;fill-rule:nonzero;stroke:none" /></g><g
           transform="translate(1018.7197,346.2014)"
           id="g3033"><path
             d="m 0,0 c 3.658,0 6.771,0.76 9.336,2.281 2.566,1.52 4.989,3.681 7.27,6.485 l 0,32.783 c -1.997,2.423 -4.169,4.133 -6.522,5.131 -2.351,0.998 -4.881,1.497 -7.589,1.497 -2.662,0 -5.073,-0.499 -7.234,-1.497 -2.162,-0.998 -3.991,-2.507 -5.488,-4.525 -1.496,-2.02 -2.648,-4.586 -3.456,-7.697 -0.809,-3.113 -1.211,-6.783 -1.211,-11.011 0,-4.276 0.343,-7.9 1.033,-10.868 0.688,-2.97 1.674,-5.393 2.957,-7.27 C -9.621,3.432 -8.053,2.078 -6.2,1.247 -4.347,0.416 -2.28,0 0,0 m 23.447,-12.899 c -2.281,0 -3.777,1.069 -4.49,3.207 l -1.425,7.056 C 16.01,-4.347 14.42,-5.892 12.757,-7.269 11.094,-8.648 9.301,-9.835 7.376,-10.832 c -1.924,-0.998 -3.99,-1.771 -6.2,-2.316 -2.209,-0.546 -4.597,-0.82 -7.162,-0.82 -3.991,0 -7.65,0.832 -10.975,2.494 -3.327,1.663 -6.189,4.073 -8.588,7.234 -2.399,3.159 -4.252,7.066 -5.559,11.723 -1.307,4.656 -1.959,9.978 -1.959,15.964 0,5.416 0.736,10.452 2.209,15.109 1.472,4.655 3.586,8.694 6.342,12.115 2.755,3.421 6.058,6.093 9.907,8.017 3.848,1.925 8.171,2.887 12.97,2.887 4.086,0 7.578,-0.654 10.476,-1.96 2.898,-1.308 5.488,-3.054 7.769,-5.238 l 0,37.65 c 0,4.4 17.602,-1.449 17.602,-1.449 l 0,-100.221 c 0,-3.231 -10.761,-3.256 -10.761,-3.256"
             id="path3035"
             style="fill:#ffffff;fill-opacity:1;fill-rule:nonzero;stroke:none" /></g><g
           transform="translate(935.3392,333.327)"
           id="g3037"><path
             d="m 0,0 0,70.509 c 0,3.231 10.333,2.611 10.333,2.611 1.805,0 3.065,-0.333 3.777,-0.998 0.713,-0.666 1.188,-1.806 1.426,-3.421 l 1.069,-8.837 c 2.612,4.513 5.677,8.076 9.194,10.69 3.515,2.612 7.458,3.92 11.83,3.92 3.61,0 9.213,-0.031 10.169,-3.271 0.908,-3.075 -3.113,-12.44 -3.113,-12.44 -0.355,-0.862 -0.809,-1.429 -1.284,-1.785 -0.475,-0.356 -1.117,-0.535 -1.924,-0.535 -0.713,0 -1.687,0.166 -2.922,0.499 -1.236,0.332 -2.875,0.499 -4.917,0.499 -3.66,0 -6.795,-1.01 -9.407,-3.029 -2.614,-2.02 -6.628,-4.579 -6.628,-8.873 L 17.603,0 0,0 z"
             id="path3039"
             style="fill:#ffffff;fill-opacity:1;fill-rule:nonzero;stroke:none" /></g><g
           transform="translate(271.7414,343.0419)"
           id="g3041"><path
             d="m 0,0 c -2.208,5.766 -6.659,10.419 -12.287,12.894 l 28,78.401 c 2.742,-1.147 5.751,-1.783 8.909,-1.783 5.604,0 10.74,1.997 14.74,5.316 L 96.739,47.883 C 95.3,44.871 94.493,41.5 94.493,37.939 c 0,-2.801 0.499,-5.485 1.412,-7.969 L 0,0 z m 117.59,61.036 c -5.843,0 -11.175,-2.174 -15.243,-5.752 L 45.17,102.066 c 1.626,3.161 2.549,6.743 2.549,10.543 0,12.756 -10.341,23.097 -23.097,23.097 -12.756,0 -23.097,-10.341 -23.097,-23.097 0,-6.131 2.394,-11.7 6.292,-15.835 L -21.446,14.839 c -0.042,0 -0.084,0.003 -0.126,0.003 -12.756,0 -23.097,-10.341 -23.097,-23.097 0,-12.756 10.341,-23.097 23.097,-23.097 12.421,0 22.548,9.806 23.072,22.099 l 99.527,31.102 c 4.197,-4.319 10.064,-7.007 16.563,-7.007 12.756,0 23.097,10.341 23.097,23.097 0,12.756 -10.341,23.097 -23.097,23.097"
             id="path3043"
             style="fill:#ffffff;fill-opacity:1;fill-rule:nonzero;stroke:none" /></g></g></g></g></svg>